<?xml version="1.0" standalone="no"?>
<!DOCTYPE svg PUBLIC "-//W3C//DTD SVG 20010904//EN"
 "http://www.w3.org/TR/2001/REC-SVG-20010904/DTD/svg10.dtd">
<svg version="1.0" xmlns="http://www.w3.org/2000/svg"
 width="210.000000pt" height="161.000000pt" viewBox="0 0 210.000000 161.000000"
 preserveAspectRatio="xMidYMid meet">

<g transform="translate(0.000000,161.000000) scale(0.100000,-0.100000)"
fill="#000000" stroke="none">
<path d="M1560 1575 c-14 -36 -100 -387 -100 -406 0 -9 -13 -45 -30 -81 -40
-85 -48 -146 -23 -174 17 -20 45 -28 81 -25 6 1 12 14 12 31 0 41 59 222 77
235 16 12 37 145 30 191 -4 25 -2 31 11 30 16 -1 29 39 45 141 7 39 5 43 -27
62 -44 28 -64 26 -76 -4z"/>
<path d="M1125 1563 c-14 -14 -16 -27 -9 -77 4 -34 8 -104 9 -157 1 -52 4
-100 8 -105 3 -5 -1 -73 -10 -151 -23 -210 -14 -233 94 -233 l45 0 -8 43 c-5
23 -9 65 -10 92 -2 114 -6 179 -11 168 -7 -18 -23 -16 -23 2 0 8 4 15 10 15 5
0 7 7 3 15 -3 9 2 24 11 34 14 15 15 28 6 87 -5 38 -10 112 -10 165 0 60 -4
99 -12 107 -18 18 -74 15 -93 -5z"/>
<path d="M764 1435 c-3 -8 -4 -20 -2 -27 5 -15 -15 -38 -32 -38 -6 0 -8 -5 -5
-10 4 -6 16 -8 27 -4 13 4 18 2 14 -4 -3 -6 -2 -13 3 -17 6 -3 8 -12 5 -19 -3
-8 2 -28 10 -45 9 -17 16 -32 16 -33 -1 -2 2 -12 6 -22 5 -12 3 -21 -4 -24 -7
-2 -12 -11 -11 -20 0 -11 2 -12 6 -4 8 21 20 13 26 -15 31 -166 47 -262 47
-284 0 -25 26 -89 36 -89 3 0 3 4 0 8 -2 4 0 14 5 22 8 11 12 12 15 3 4 -8 13
-9 34 -2 23 9 29 17 32 50 2 21 -1 49 -5 61 -17 43 -34 177 -22 182 5 3 0 8
-12 11 -12 4 -27 21 -33 39 -17 49 -25 153 -12 169 11 13 3 33 -33 89 -23 36
-100 52 -111 23z"/>
<path d="M618 1384 c-10 -9 3 -42 19 -49 23 -8 28 2 15 30 -11 24 -23 31 -34
19z"/>
<path d="M725 1250 c-7 -11 22 -33 35 -25 5 3 10 10 10 14 0 12 -39 21 -45 11z"/>
<path d="M1010 1205 c0 -2 10 -10 23 -16 20 -11 21 -11 8 4 -13 16 -31 23 -31
12z"/>
<path d="M522 1131 c-27 -25 -31 -35 -26 -58 8 -34 31 -73 43 -73 27 0 71 -55
91 -114 11 -35 27 -72 35 -82 14 -18 14 -18 15 5 0 20 2 22 16 10 22 -18 44
-64 44 -94 0 -29 16 -32 49 -9 29 21 24 56 -19 126 -27 44 -29 49 -11 43 25
-8 61 10 61 31 0 23 -58 43 -93 33 -25 -7 -32 -4 -55 23 -49 57 -51 62 -46 95
5 27 2 34 -23 50 -15 10 -33 24 -38 31 -8 10 -17 6 -43 -17z"/>
<path d="M1285 824 c-55 -13 -151 -33 -214 -44 -63 -11 -117 -23 -120 -28 -15
-22 -105 -64 -156 -72 -55 -9 -95 -31 -95 -53 0 -5 7 -7 15 -3 13 5 20 -5 16
-27 -1 -4 14 -21 33 -38 56 -49 70 -100 63 -230 -5 -93 -3 -121 14 -173 32
-101 57 -120 178 -135 47 -6 85 -10 86 -8 27 43 46 334 23 348 -7 4 -17 23
-23 40 -9 26 -25 39 -75 65 -35 17 -70 30 -76 27 -30 -11 -34 10 -8 34 27 25
28 25 73 9 38 -13 40 -15 13 -11 -18 3 -31 1 -27 -4 7 -12 57 -23 120 -27 28
-1 80 -6 117 -9 152 -16 218 22 248 140 l18 70 35 0 c41 0 73 25 64 49 -8 20
-41 21 -57 2 -18 -23 -42 -8 -37 23 2 14 2 20 0 13 -8 -23 -28 -6 -25 20 3 21
-3 28 -29 37 -41 14 -54 13 -174 -15z"/>
<path d="M575 730 c-10 -16 4 -30 30 -30 34 0 41 18 10 30 -32 12 -32 12 -40
0z"/>
<path d="M5 711 c-7 -12 12 -24 25 -16 11 7 4 25 -10 25 -5 0 -11 -4 -15 -9z"/>
<path d="M472 679 c-34 -13 -27 -59 10 -71 61 -20 119 45 63 70 -30 14 -42 14
-73 1z"/>
<path d="M1975 660 c-22 -11 -83 -59 -135 -105 -52 -47 -109 -91 -127 -97 -18
-7 -33 -15 -33 -18 0 -18 82 -30 137 -21 110 18 159 48 229 143 48 66 54 92
25 108 -29 15 -51 12 -96 -10z"/>
<path d="M10 585 c0 -8 5 -15 10 -15 6 0 10 7 10 15 0 8 -4 15 -10 15 -5 0
-10 -7 -10 -15z"/>
<path d="M156 562 c-3 -6 -1 -14 5 -17 15 -10 25 3 12 16 -7 7 -13 7 -17 1z"/>
<path d="M400 520 c0 -5 4 -10 9 -10 6 0 13 5 16 10 3 6 -1 10 -9 10 -9 0 -16
-4 -16 -10z"/>
<path d="M433 474 c-5 -14 11 -34 27 -34 3 0 11 4 19 9 19 12 6 41 -19 41 -11
0 -23 -7 -27 -16z"/>
<path d="M242 469 c2 -6 8 -10 13 -10 5 0 11 4 13 10 2 6 -4 11 -13 11 -9 0
-15 -5 -13 -11z"/>
<path d="M1635 384 c-17 -13 -40 -14 -145 -9 -167 10 -186 8 -230 -16 l-38
-22 18 -52 c34 -100 79 -157 134 -171 60 -15 155 41 266 155 30 32 68 67 83
79 16 12 26 26 22 32 -5 8 -11 8 -20 0 -9 -7 -16 -6 -25 5 -16 19 -39 19 -65
-1z"/>
<path d="M664 300 c-26 -10 -37 -45 -19 -60 31 -26 108 27 83 57 -12 15 -33
16 -64 3z"/>
<path d="M450 160 c0 -5 7 -10 15 -10 8 0 15 5 15 10 0 6 -7 10 -15 10 -8 0
-15 -4 -15 -10z"/>
</g>
</svg>
