<?xml version="1.0" standalone="no"?>
<!DOCTYPE svg PUBLIC "-//W3C//DTD SVG 20010904//EN"
 "http://www.w3.org/TR/2001/REC-SVG-20010904/DTD/svg10.dtd">
<svg version="1.0" xmlns="http://www.w3.org/2000/svg"
 width="165.000000pt" height="166.000000pt" viewBox="0 0 165.000000 166.000000"
 preserveAspectRatio="xMidYMid meet">

<g transform="translate(0.000000,166.000000) scale(0.100000,-0.100000)"
fill="#000000" stroke="none">
<path d="M765 1630 c-3 -11 -3 -24 0 -30 3 -5 1 -10 -5 -10 -7 0 -10 -7 -7
-14 4 -10 1 -13 -9 -9 -7 3 -14 0 -14 -6 0 -13 16 -13 45 -2 11 5 30 4 42 -2
21 -9 20 -12 -30 -47 -52 -38 -87 -84 -87 -114 0 -19 -11 -21 -29 -3 -10 10
-19 4 -45 -26 -26 -31 -38 -38 -62 -36 -64 7 -91 -46 -37 -71 25 -12 33 -21
33 -43 0 -16 5 -70 11 -121 l12 -93 26 13 c15 7 40 14 56 14 17 0 39 1 50 1
11 1 48 2 83 3 l63 1 55 -57 c30 -31 54 -63 54 -71 0 -25 -84 -104 -119 -112
-19 -4 -49 -1 -79 9 -61 21 -143 81 -136 100 3 8 1 17 -5 20 -10 7 -81 15 -81
10 0 -2 5 -15 12 -29 14 -31 6 -40 -22 -25 -55 29 -114 -25 -68 -63 21 -18 43
-18 79 -3 14 6 17 -2 21 -48 5 -63 21 -85 88 -124 108 -62 168 -130 156 -178
-8 -29 -66 -94 -85 -94 -15 0 -14 62 1 95 10 23 9 28 -13 43 -44 31 -89 36
-59 6 8 -8 6 -15 -5 -24 -22 -18 -19 -51 5 -57 16 -4 20 -14 20 -47 0 -31 9
-56 33 -92 l32 -49 3 43 c3 46 12 51 39 24 10 -10 64 -62 120 -115 84 -80 107
-97 133 -97 26 0 33 6 46 35 20 49 19 52 -30 59 -80 12 -131 74 -101 120 14
20 14 25 1 35 -11 9 -20 10 -35 2 -15 -8 -23 -7 -35 5 -18 17 -23 36 -29 106
-4 44 -3 47 14 37 11 -5 19 -13 19 -18 0 -5 11 -6 25 -3 39 7 56 -14 49 -58
-4 -23 -2 -40 5 -44 7 -5 11 6 11 32 0 25 7 45 18 55 37 34 52 16 52 -63 0
-32 5 -50 14 -53 11 -4 15 11 21 67 8 88 20 112 28 59 4 -21 7 -57 7 -80 l0
-43 71 0 c91 0 139 15 189 57 47 41 105 132 121 194 10 39 10 50 -4 79 -10 18
-16 34 -15 35 2 0 22 13 45 28 160 102 149 334 -21 413 -123 57 -271 1 -323
-123 -17 -42 -16 -127 2 -178 14 -38 14 -41 -8 -54 -37 -25 -114 -109 -127
-140 -10 -25 -15 -29 -31 -21 -25 14 -10 55 43 115 41 47 46 82 9 72 -35 -9
-44 7 -24 47 17 36 17 39 -2 74 -14 25 -36 45 -70 63 -35 17 -51 32 -53 48 -4
22 -3 23 18 8 16 -11 30 -13 48 -7 15 5 39 11 54 14 49 11 58 29 42 82 -16 54
-18 104 -5 104 13 0 25 178 16 254 l-6 64 -57 6 c-31 3 -73 2 -92 -2 -31 -7
-40 -4 -83 30 -54 42 -83 48 -92 18z"/>
<path d="M620 1571 c0 -26 27 -48 42 -33 9 9 7 17 -7 32 -23 25 -35 26 -35 1z"/>
<path d="M10 906 c0 -9 7 -16 16 -16 17 0 14 22 -4 28 -7 2 -12 -3 -12 -12z"/>
<path d="M16 791 c-4 -5 -2 -12 3 -15 5 -4 12 -2 15 3 4 5 2 12 -3 15 -5 4
-12 2 -15 -3z"/>
<path d="M160 755 c0 -8 5 -15 10 -15 6 0 10 7 10 15 0 8 -4 15 -10 15 -5 0
-10 -7 -10 -15z"/>
<path d="M405 729 c-10 -15 3 -25 16 -12 7 7 7 13 1 17 -6 3 -14 1 -17 -5z"/>
<path d="M441 676 c-10 -12 -8 -17 9 -26 25 -13 52 3 43 26 -7 18 -37 18 -52
0z"/>
<path d="M242 668 c5 -15 28 -18 29 -3 0 6 -7 12 -17 13 -10 3 -15 -1 -12 -10z"/>
<path d="M890 428 c0 -15 5 -30 10 -33 13 -8 13 25 0 45 -8 12 -10 9 -10 -12z"/>
<path d="M455 360 c-3 -5 1 -10 9 -10 9 0 16 5 16 10 0 6 -4 10 -9 10 -6 0
-13 -4 -16 -10z"/>
<path d="M620 10 c-11 -7 -6 -10 20 -10 26 0 31 3 20 10 -8 5 -17 10 -20 10
-3 0 -12 -5 -20 -10z"/>
</g>
</svg>
