<?xml version="1.0" standalone="no"?>
<!DOCTYPE svg PUBLIC "-//W3C//DTD SVG 20010904//EN"
 "http://www.w3.org/TR/2001/REC-SVG-20010904/DTD/svg10.dtd">
<svg version="1.0" xmlns="http://www.w3.org/2000/svg"
 width="155.000000pt" height="177.000000pt" viewBox="0 0 155.000000 177.000000"
 preserveAspectRatio="xMidYMid meet">

<g transform="translate(0.000000,177.000000) scale(0.100000,-0.100000)"
fill="#000000" stroke="none">
<path d="M864 1739 l-29 -31 -102 5 -101 6 -31 -37 c-17 -20 -40 -50 -52 -65
-15 -19 -27 -26 -38 -21 -94 39 -175 19 -125 -30 10 -10 11 -16 4 -16 -7 0
-10 -7 -6 -15 3 -8 1 -15 -4 -15 -6 0 -10 -4 -10 -10 0 -17 25 -11 40 10 8 11
25 20 38 20 l23 0 -21 -22 c-22 -23 -40 -77 -40 -118 0 -77 67 -172 152 -214
29 -14 44 -26 35 -26 -24 0 -67 -29 -67 -45 0 -19 35 -28 75 -21 33 7 51 29
39 48 -5 7 2 9 17 5 13 -3 51 -11 85 -17 57 -11 61 -14 56 -36 -2 -13 -8 -24
-13 -24 -5 0 -9 -8 -9 -17 0 -10 -14 -26 -30 -35 -17 -9 -31 -25 -31 -35 -1
-10 -2 -24 -3 -31 0 -8 -17 -19 -37 -26 -20 -7 -53 -23 -73 -35 -20 -13 -36
-18 -36 -12 0 6 -13 11 -29 11 -36 0 -50 -27 -20 -39 21 -7 21 -8 -5 -24 -14
-9 -31 -17 -39 -17 -24 0 -55 -43 -47 -65 4 -11 3 -28 -2 -38 -6 -12 -6 -29 1
-49 6 -17 8 -34 6 -38 -3 -5 -1 -11 5 -15 5 -3 10 -20 10 -36 0 -26 3 -29 25
-23 18 4 36 -2 67 -25 28 -21 45 -28 52 -21 15 15 37 12 51 -6 9 -12 16 -14
31 -7 10 6 33 13 51 16 27 5 32 3 35 -16 2 -12 11 -23 21 -25 23 -5 57 25 57
49 0 12 10 21 28 25 15 4 36 13 47 20 22 15 65 19 65 5 0 -4 74 -10 165 -13
142 -5 171 -9 210 -28 75 -36 86 -89 26 -124 -29 -17 -35 -17 -45 -5 -6 8 -27
22 -47 32 -28 14 -41 16 -63 8 -30 -12 -89 -14 -124 -5 -21 6 -22 8 -7 24 18
20 17 61 -2 67 -6 2 -20 -8 -29 -22 -14 -21 -15 -31 -6 -45 10 -16 8 -18 -15
-17 -19 2 -31 -5 -42 -25 -15 -26 -8 -55 8 -30 10 16 61 19 86 5 11 -7 32 -7
57 -1 43 9 62 6 92 -17 34 -26 6 -41 -76 -39 -50 1 -81 -3 -99 -14 -21 -12
-33 -13 -59 -4 -18 7 -36 9 -41 6 -20 -12 0 -164 21 -164 4 0 21 5 39 11 27 9
35 8 51 -6 18 -16 18 -17 -1 -48 -28 -47 -23 -53 15 -19 33 29 34 29 131 24
l98 -5 34 38 c18 20 33 40 33 44 0 7 59 68 96 98 42 36 57 71 57 136 -1 35 -6
74 -13 87 -21 40 -93 111 -130 130 -35 18 -167 55 -220 62 -43 5 -25 77 27
108 24 14 34 27 33 43 -4 41 0 47 28 47 18 0 63 23 122 63 77 51 99 71 117
107 26 54 28 80 7 140 -8 24 -13 52 -11 62 4 15 2 16 -15 7 -17 -9 -28 -6 -64
20 -33 23 -51 29 -72 25 -19 -4 -32 -1 -41 10 -9 10 -18 12 -29 6 -10 -5 -60
-19 -112 -31 -52 -12 -105 -28 -117 -35 -19 -12 -53 -12 -223 0 -215 15 -242
23 -283 78 -19 25 -19 29 -4 51 16 24 77 54 77 37 0 -4 15 -16 33 -27 27 -15
53 -18 162 -18 l130 1 13 28 c17 33 9 45 -14 21 -13 -12 -25 -15 -48 -10 -17
4 -57 6 -89 6 -39 -1 -67 4 -87 15 -30 18 -32 37 -2 28 16 -5 16 -5 0 9 -15
12 -7 13 61 9 54 -3 85 0 102 9 13 7 29 12 34 10 6 -2 25 -7 42 -11 31 -7 33
-6 38 24 6 27 -8 116 -20 136 -3 4 -23 3 -45 -3 -34 -9 -43 -9 -57 5 -12 13
-14 20 -5 30 11 14 34 68 29 68 -2 0 -16 -14 -33 -31z m-174 -84 c0 -2 -18
-14 -41 -26 -28 -14 -40 -16 -37 -7 7 21 78 51 78 33z m190 -27 c19 -13 35
-28 37 -34 11 -34 -163 -51 -209 -20 -21 13 -31 15 -47 7 -33 -18 -34 -12 -3
14 30 25 48 33 37 15 -3 -5 14 2 37 15 54 31 105 32 148 3z m510 -389 c52 -12
90 -43 90 -74 0 -12 -12 -46 -27 -76 -24 -45 -39 -61 -98 -96 -83 -51 -96 -54
-86 -15 4 15 7 41 6 57 -1 17 -3 43 -3 59 -1 18 -15 42 -40 67 l-38 38 45 25
c50 28 82 31 151 15z m-352 -204 c11 -13 25 -38 32 -55 11 -27 9 -36 -16 -87
-15 -32 -28 -60 -28 -63 0 -3 -18 -18 -40 -34 -45 -33 -59 -29 -88 25 -23 41
-18 90 12 131 11 15 20 34 20 42 0 8 8 17 19 21 10 3 26 14 36 25 23 26 30 25
53 -5z m-354 -212 c-8 -77 8 -135 48 -168 34 -29 34 -29 -24 -60 -34 -19 -127
-19 -153 -1 -11 7 -32 16 -47 20 -25 6 -28 11 -28 46 0 29 8 48 30 73 17 19
30 41 30 50 0 13 122 95 142 97 4 0 5 -26 2 -57z m647 -634 c-21 -17 -61 -26
-61 -14 0 8 75 44 80 38 3 -3 -6 -13 -19 -24z"/>
<path d="M267 1483 c-11 -10 13 -33 34 -33 23 0 25 25 3 34 -20 8 -29 8 -37
-1z"/>
<path d="M656 1371 c-3 -4 6 -6 19 -3 14 2 25 6 25 8 0 8 -39 4 -44 -5z"/>
<path d="M313 1226 c-30 -14 -50 -47 -39 -65 9 -13 57 -20 81 -11 23 9 55 37
55 48 -1 33 -52 47 -97 28z"/>
<path d="M560 1030 c0 -5 9 -10 20 -10 11 0 20 5 20 10 0 6 -9 10 -20 10 -11
0 -20 -4 -20 -10z"/>
<path d="M2 608 c6 -18 28 -21 28 -4 0 9 -7 16 -16 16 -9 0 -14 -5 -12 -12z"/>
<path d="M200 540 c0 -5 7 -10 15 -10 8 0 15 5 15 10 0 6 -7 10 -15 10 -8 0
-15 -4 -15 -10z"/>
<path d="M60 505 c0 -8 5 -15 10 -15 6 0 10 7 10 15 0 8 -4 15 -10 15 -5 0
-10 -7 -10 -15z"/>
<path d="M321 507 c-9 -12 -8 -16 3 -20 19 -7 32 11 19 24 -6 6 -14 5 -22 -4z"/>
<path d="M640 310 c0 -5 7 -10 16 -10 8 0 12 5 9 10 -3 6 -10 10 -16 10 -5 0
-9 -4 -9 -10z"/>
<path d="M610 260 c0 -5 5 -10 10 -10 6 0 10 5 10 10 0 6 -4 10 -10 10 -5 0
-10 -4 -10 -10z"/>
</g>
</svg>
