<?xml version="1.0" standalone="no"?>
<!DOCTYPE svg PUBLIC "-//W3C//DTD SVG 20010904//EN"
 "http://www.w3.org/TR/2001/REC-SVG-20010904/DTD/svg10.dtd">
<svg version="1.0" xmlns="http://www.w3.org/2000/svg"
 width="188.000000pt" height="157.000000pt" viewBox="0 0 188.000000 157.000000"
 preserveAspectRatio="xMidYMid meet">

<g transform="translate(0.000000,157.000000) scale(0.100000,-0.100000)"
fill="#000000" stroke="none">
<path d="M761 1538 c-5 -15 -4 -26 3 -30 8 -6 7 -8 -1 -8 -7 0 -13 -7 -13 -15
0 -9 -6 -12 -17 -8 -13 4 -15 3 -8 -5 7 -8 21 -9 40 -3 24 7 40 3 81 -20 42
-24 54 -27 63 -16 20 25 -78 127 -122 127 -10 0 -21 -10 -26 -22z"/>
<path d="M1194 1520 c-34 -13 -46 -108 -19 -144 10 -13 15 -44 15 -91 l0 -72
-102 -7 c-66 -4 -111 -12 -126 -22 -23 -15 -26 -14 -61 18 -70 66 -68 66 -67
-15 0 -112 -5 -132 -34 -129 -61 6 -80 4 -95 -8 -10 -8 -12 -17 -6 -23 5 -5
-6 -22 -30 -44 -21 -19 -39 -41 -39 -48 0 -18 -34 -45 -58 -45 -25 0 -28 -10
-10 -28 9 -9 8 -12 -5 -12 -21 0 -22 -26 -1 -34 25 -9 72 -7 79 4 3 6 -1 13
-9 16 -9 3 -14 10 -11 14 9 14 109 66 155 80 25 8 69 27 98 43 29 16 55 27 58
25 2 -3 6 -31 8 -64 5 -101 58 -174 153 -215 83 -36 271 -45 259 -12 -7 18 6
43 60 112 24 31 44 66 44 78 0 20 2 21 25 11 14 -6 26 -14 26 -17 1 -3 3 -21
5 -40 4 -29 2 -33 -17 -28 -15 4 -18 2 -10 -7 12 -14 4 -54 -16 -78 -8 -9 -29
-22 -46 -29 -18 -6 -63 -27 -101 -46 -159 -76 -311 -17 -402 155 -41 78 -74
110 -74 72 0 -28 51 -180 60 -180 9 0 64 -90 58 -95 -2 -2 -33 0 -70 5 -75 9
-128 37 -206 108 -26 23 -52 42 -59 42 -6 0 -18 3 -27 6 -12 4 -14 0 -10 -18
2 -12 7 -36 9 -52 2 -16 15 -39 28 -50 14 -12 48 -47 76 -79 28 -31 51 -55 51
-53 0 3 13 0 30 -5 38 -14 55 -69 47 -157 l-6 -62 29 15 c16 8 41 31 56 50 19
25 32 34 43 29 67 -28 89 -32 132 -23 24 6 59 8 77 4 41 -8 41 -24 2 -117 -30
-69 -36 -124 -21 -178 8 -29 40 -37 81 -20 40 17 50 86 21 150 -16 36 -19 58
-14 103 6 54 20 73 49 65 22 -5 161 15 179 27 18 11 26 7 75 -36 30 -26 55
-47 56 -46 1 1 -2 27 -8 57 -7 39 -6 66 2 93 6 22 9 41 6 45 -10 9 15 32 35
32 11 0 19 5 19 10 0 6 13 10 28 10 22 0 43 15 93 67 35 37 69 66 76 65 15 -3
26 15 13 23 -15 9 -12 25 5 25 21 0 19 18 -2 22 -10 2 -41 -13 -69 -34 -28
-21 -55 -38 -59 -38 -5 0 -16 -6 -24 -13 -9 -7 -36 -20 -61 -27 -25 -7 -70
-28 -100 -45 -30 -18 -72 -35 -93 -38 l-37 -6 30 31 c17 17 29 37 26 44 -3 8
-1 14 4 14 6 0 10 6 10 13 0 8 11 24 25 37 13 12 22 27 19 31 -3 5 2 9 10 9
16 0 18 5 21 50 1 14 5 53 10 87 6 51 10 60 24 55 32 -14 106 -68 141 -104 21
-21 49 -39 70 -43 33 -7 34 -6 15 9 l-20 16 20 -7 c18 -6 19 -5 5 12 -8 10
-14 20 -12 22 1 1 1 6 1 11 -1 4 -2 12 -3 18 -2 21 -141 173 -158 173 -49 2
-76 84 -59 174 7 37 6 47 -5 47 -15 0 -89 -68 -95 -88 -3 -9 -15 -7 -49 9 -36
17 -55 20 -102 15 -71 -7 -118 1 -118 21 0 9 16 52 36 96 30 65 35 88 31 124
-7 69 -40 95 -93 73z m52 -51 c10 -17 -13 -36 -27 -22 -12 12 -4 33 11 33 5 0
12 -5 16 -11z m-67 -490 c23 -37 45 -142 36 -170 -7 -21 -7 -21 -28 -1 -27 24
-69 47 -80 44 -5 -1 -6 7 -2 18 4 12 -1 43 -11 71 -16 44 -16 51 -4 59 32 20
70 11 89 -21z"/>
<path d="M618 1494 c-9 -9 3 -42 18 -48 19 -7 27 10 14 34 -11 20 -22 25 -32
14z"/>
<path d="M724 1358 c-7 -11 15 -29 30 -25 6 2 11 8 13 14 5 14 -35 24 -43 11z"/>
<path d="M1015 1310 c3 -5 11 -10 16 -10 6 0 7 5 4 10 -3 6 -11 10 -16 10 -6
0 -7 -4 -4 -10z"/>
<path d="M790 1285 c0 -8 2 -15 4 -15 2 0 6 7 10 15 3 8 1 15 -4 15 -6 0 -10
-7 -10 -15z"/>
<path d="M509 1229 c-24 -24 -24 -32 0 -53 22 -20 84 -24 106 -6 32 26 11 56
-51 70 -29 7 -39 5 -55 -11z"/>
<path d="M930 1220 c20 -13 43 -13 35 0 -3 6 -16 10 -28 10 -18 0 -19 -2 -7
-10z"/>
<path d="M5 821 c-7 -12 12 -24 25 -16 11 7 4 25 -10 25 -5 0 -11 -4 -15 -9z"/>
<path d="M472 789 c-34 -13 -27 -59 10 -71 61 -20 119 45 63 70 -30 14 -42 14
-73 1z"/>
<path d="M10 695 c0 -8 5 -15 10 -15 6 0 10 7 10 15 0 8 -4 15 -10 15 -5 0
-10 -7 -10 -15z"/>
<path d="M156 672 c-3 -6 -1 -14 5 -17 15 -10 25 3 12 16 -7 7 -13 7 -17 1z"/>
<path d="M400 630 c0 -5 5 -10 10 -10 6 0 10 5 10 10 0 6 -4 10 -10 10 -5 0
-10 -4 -10 -10z"/>
<path d="M245 590 c-4 -6 -3 -16 3 -22 6 -6 12 -6 17 2 4 6 3 16 -3 22 -6 6
-12 6 -17 -2z"/>
<path d="M433 584 c-5 -14 11 -34 27 -34 3 0 11 4 19 9 19 12 6 41 -19 41 -11
0 -23 -7 -27 -16z"/>
<path d="M664 410 c-25 -10 -36 -33 -27 -56 4 -12 14 -14 36 -10 40 8 59 25
55 50 -3 23 -31 30 -64 16z"/>
<path d="M450 270 c0 -5 5 -10 10 -10 6 0 10 5 10 10 0 6 -4 10 -10 10 -5 0
-10 -4 -10 -10z"/>
<path d="M912 254 c-27 -19 -30 -54 -4 -54 25 0 56 35 49 55 -8 19 -17 19 -45
-1z"/>
<path d="M1418 3 c6 -2 18 -2 25 0 6 3 1 5 -13 5 -14 0 -19 -2 -12 -5z"/>
</g>
</svg>
